[center]
[URL=http://img7.imageshack.us/i/planetdinosaur.jpg/][IMG]http://img7.imageshack.us/img7/7870/planetdinosaur.jpg[/IMG][/URL]
-=-=-=-=-=-=-=-=-=-=-=-

[b]Planet Dinosaur Files: 5. Kings of the Skies[/b]
CBBC / 27 October 2011

Jem Stansfield takes another extraordinary journey into the jaw-dropping world of Planet Dinosaur. 
This time he's looking at some amazing new flying creatures, like the four-winged glider microraptor, 
and the incredibly huge hatzegopteryx. Plus, in his dinosaur workshop he builds some prehistoric wings.

Category General Children's/Youth

Cast
Presenter Jem Stansfield 
 
-=-=-=-=-=-=-=-=-=-

[b]File info[/b]

Format                           : AVI
Format/Info                      : Audio Video Interleave
File size                        : 300 MiB
Duration                         : 28mn 20s
Overall bit rate                 : 1 480 Kbps
Writing application              : Lavf52.93.0
Writing library                  : VirtualDub build 32842/release

Video
ID                               : 0
Format                           : MPEG-4 Visual
Format profile                   : Simple@L1
Format settings, BVOP            : No
Format settings, QPel            : No
Format settings, GMC             : No warppoints
Format settings, Matrix          : Default (H.263)
Codec ID                         : XVID
Codec ID/Hint                    : XviD
Duration                         : 28mn 20s
Bit rate                         : 1 342 Kbps
Width                            : 720 pixels
Height                           : 420 pixels
Display aspect ratio             : 16:9
Frame rate                       : 25.000 fps
Color space                      : YUV
Chroma subsampling               : 4:2:0
Bit depth                        : 8 bits
Scan type                        : Progressive
Compression mode                 : Lossy
Bits/(Pixel*Frame)               : 0.177
Stream size                      : 272 MiB (91%)
Writing library                  : Lavc52.41.0

Audio
ID                               : 1
Format                           : MPEG Audio
Format version                   : Version 1
Format profile                   : Layer 3
Mode                             : Joint stereo
Mode extension                   : MS Stereo
Codec ID                         : 55
Codec ID/Hint                    : MP3
Duration                         : 28mn 20s
Bit rate mode                    : Constant
Bit rate                         : 128 Kbps
Channel(s)                       : 2 channels
Sampling rate                    : 48.0 KHz
Compression mode                 : Lossy
Stream size                      : 25.9 MiB (9%)
Alignment                        : Split accross interleaves
Interleave, duration             : 40 ms (1.00 video frame)
Interleave, preload duration     : 500 ms
Writing library                  : LAME3.98.2


spoken language: Engish

Note:- TYVM to L1smokie for providing the source material for this episode after 
my own recording had audio problems which prevented me releasing it.
--------------------------------

[b]Screenshots[/b]

[URL=http://img850.imageshack.us/i/planetdinosaurfiless01e.jpg/][IMG]http://img850.imageshack.us/img850/6783/planetdinosaurfiless01e.jpg[/IMG][/URL]

[b]Hash:[/b]
EDB2CD343FC2AE359BECAD43BFC388E42813A17E

[/center]

